<svg width="53" height="53" viewBox="0 0 53 53" fill="none" xmlns="http://www.w3.org/2000/svg">
<path fill-rule="evenodd" clip-rule="evenodd" d="M53 26.5C53 41.1355 41.1355 53 26.5 53C11.8645 53 0 41.1355 0 26.5C0 11.8645 11.8645 0 26.5 0C41.1355 0 53 11.8645 53 26.5ZM34.45 18.55C34.45 22.9407 30.8907 26.5 26.5 26.5C22.1093 26.5 18.55 22.9407 18.55 18.55C18.55 14.1593 22.1093 10.6 26.5 10.6C30.8907 10.6 34.45 14.1593 34.45 18.55ZM26.5 49.025C31.2277 49.025 35.6152 47.5685 39.2383 45.0797C40.8386 43.9805 41.5224 41.8865 40.5921 40.1826C38.6634 36.6502 34.6891 34.45 26.4998 34.45C18.3107 34.45 14.3364 36.6501 12.4077 40.1824C11.4773 41.8863 12.1611 43.9803 13.7613 45.0795C17.3845 47.5684 21.7721 49.025 26.5 49.025Z" fill="#73C14A"/>
</svg>
