<svg width="106" height="105" viewBox="0 0 106 105" fill="none" xmlns="http://www.w3.org/2000/svg">
<path d="M14.0914 101.243H12.4706C6.5919 101.243 3.65255 101.243 1.82628 99.4437C0 97.6445 0 94.7488 0 88.9572V82.1267C0 78.9416 0 77.349 0.830408 75.9268C1.66082 74.5046 2.91358 73.7868 5.41911 72.3511C21.9144 62.8995 45.3402 57.579 60.9753 66.7662C62.0258 67.3835 62.9706 68.1286 63.778 69.0221C67.2579 72.8728 67.0042 78.6847 62.9937 82.1332C62.1468 82.8614 61.244 83.4137 60.3349 83.6056C61.082 83.5204 61.798 83.4225 62.4812 83.3152C68.1641 82.4222 72.9345 79.4304 77.3016 76.1803L88.57 67.7943C92.5425 64.8379 98.4385 64.8374 102.412 67.793C105.989 70.4537 107.082 74.835 104.821 78.406C102.184 82.5705 98.4684 87.8981 94.9007 91.1535C91.328 94.4135 86.0089 97.3239 81.6666 99.3887C76.8565 101.676 71.5425 102.994 66.1374 103.856C55.1752 105.604 43.7504 105.337 32.8995 103.135C26.7652 101.89 20.3944 101.243 14.0914 101.243Z" fill="#F0DD6C"/>
<rect x="40" width="47" height="47" fill="#F0DD6C"/>
</svg>
