<svg width="46" height="46" viewBox="0 0 46 46" fill="none" xmlns="http://www.w3.org/2000/svg">
<path fill-rule="evenodd" clip-rule="evenodd" d="M0 23C0 10.2975 10.2975 0 23 0C35.7025 0 46 10.2975 46 23C46 35.7025 35.7025 46 23 46C10.2975 46 0 35.7025 0 23ZM11.7875 19.1188V34.5H16.675V19.1188H11.7875ZM11.5 14.2313C11.5 15.8125 12.65 16.9625 14.2313 16.9625C15.8125 16.9625 16.9625 15.8125 16.9625 14.2313C16.9625 12.65 15.8125 11.5 14.2313 11.5C12.7938 11.5 11.5 12.65 11.5 14.2313ZM29.6125 34.5H34.2125V25.0125C34.2125 20.2687 31.3375 18.6875 28.6062 18.6875C26.1625 18.6875 24.4375 20.2687 24.0062 21.275V19.1188H19.4062V34.5H24.2937V26.3063C24.2937 24.15 25.7312 23 27.1687 23C28.6062 23 29.6125 23.7188 29.6125 26.1625V34.5Z" fill="white"/>
</svg>
