<svg width="68" height="60" viewBox="0 0 68 60" fill="none" xmlns="http://www.w3.org/2000/svg">
<path fill-rule="evenodd" clip-rule="evenodd" d="M27.4567 2.30371L8.64409 18.5176C6.63596 20.2484 5.487 22.7291 5.487 25.3342V55.4398H2.35157C1.05283 55.4398 0 56.4607 0 57.7199C0 58.9792 1.05283 60 2.35157 60H65.0602C66.3589 60 67.4117 58.9792 67.4117 57.7199C67.4117 56.4607 66.3589 55.4398 65.0602 55.4398H61.9247V25.3342C61.9247 22.7291 60.7758 20.2484 58.7676 18.5176L39.9551 2.30371C36.3912 -0.767903 31.0206 -0.767903 27.4567 2.30371ZM27.435 15.9184C26.1363 15.9184 25.0834 16.9392 25.0834 18.1985C25.0834 19.4578 26.1363 20.4786 27.435 20.4786H39.9767C41.2755 20.4786 42.3283 19.4578 42.3283 18.1985C42.3283 16.9392 41.2755 15.9184 39.9767 15.9184H27.435ZM40.1398 25.0387C42.9569 25.0387 45.306 25.0386 47.1709 25.2817C49.1393 25.5383 50.9165 26.1027 52.3446 27.4874C53.7727 28.8721 54.3548 30.5952 54.6195 32.5038C54.8702 34.312 54.8701 36.5897 54.87 39.3212L54.87 55.4398H50.1669H17.2449H12.5417L12.5417 39.3212C12.5416 36.5897 12.5415 34.312 12.7923 32.5038C13.0569 30.5952 13.6391 28.8721 15.0672 27.4874C16.4953 26.1027 18.2724 25.5383 20.2408 25.2817C22.1057 25.0386 24.4548 25.0387 27.272 25.0387H40.1398Z" fill="#E7F9DE"/>
<path opacity="0.5" d="M40.1398 25.0389H27.272C24.4549 25.0388 22.1057 25.0387 20.2409 25.2818C18.2725 25.5384 16.4953 26.1029 15.0672 27.4876C13.6391 28.8723 13.057 30.5954 12.7923 32.504C12.5416 34.3121 12.5417 36.5898 12.5418 39.3212L12.5418 55.4398H54.8701L54.8701 39.3214V39.3213C54.8701 36.5899 54.8702 34.3121 54.6195 32.504C54.3549 30.5954 53.7727 28.8723 52.3446 27.4876C50.9165 26.1029 49.1393 25.5384 47.1709 25.2818C45.3061 25.0387 42.9569 25.0388 40.1398 25.0389Z" fill="#E7F9DE"/>
<path d="M24.2993 35.6791C23.0006 35.6791 21.9478 36.7 21.9478 37.9592C21.9478 39.2185 23.0006 40.2393 24.2993 40.2393H43.1119C44.4106 40.2393 45.4635 39.2185 45.4635 37.9592C45.4635 36.7 44.4106 35.6791 43.1119 35.6791H24.2993Z" fill="#E7F9DE"/>
<path d="M24.2993 44.7995C23.0006 44.7995 21.9478 45.8203 21.9478 47.0795C21.9478 48.3388 23.0006 49.3596 24.2993 49.3596H43.1119C44.4106 49.3596 45.4635 48.3388 45.4635 47.0795C45.4635 45.8203 44.4106 44.7995 43.1119 44.7995H24.2993Z" fill="#E7F9DE"/>
</svg>
