<svg width="63" height="60" viewBox="0 0 63 60" fill="none" xmlns="http://www.w3.org/2000/svg">
<g clip-path="url(#clip0_489_166)">
<path fill-rule="evenodd" clip-rule="evenodd" d="M4.59469 28.1276C4.80731 13.411 16.8928 1.575 31.734 1.575C41.549 1.575 50.1516 6.74967 54.9171 14.5014C55.5607 15.5482 55.2338 16.9186 54.187 17.5621C53.1401 18.2057 51.7698 17.8788 51.1262 16.8319C47.1424 10.3517 39.9503 6.025 31.734 6.025C19.3204 6.025 9.26109 15.8972 9.04537 28.1212L10.2332 26.9427C11.1055 26.0772 12.5143 26.0828 13.3798 26.9551C14.2453 27.8274 14.2397 29.2362 13.3674 30.1017L8.38396 35.0461C7.51648 35.9068 6.1172 35.9068 5.24972 35.0461L0.266278 30.1017C-0.606045 29.2362 -0.611579 27.8274 0.253918 26.9551C1.11941 26.0828 2.5282 26.0772 3.40052 26.9427L4.59469 28.1276Z" fill="#D7C22E"/>
<path opacity="0.5" fill-rule="evenodd" clip-rule="evenodd" d="M54.5998 25.9509C55.4666 25.0942 56.8613 25.0942 57.728 25.9509L62.7305 30.8953C63.6045 31.7591 63.6127 33.1679 62.7489 34.0419C61.8851 34.9159 60.4763 34.9241 59.6023 34.0602L58.3863 32.8583C58.1804 47.5891 46.0417 59.425 31.1515 59.425C21.306 59.425 12.6731 54.2541 7.88897 46.5018C7.24362 45.4561 7.5682 44.0852 8.61393 43.4399C9.65967 42.7945 11.0306 43.1191 11.6759 44.1648C15.6747 50.6445 22.8967 54.975 31.1515 54.975C43.63 54.975 53.7268 45.0873 53.9356 32.8642L52.7255 34.0602C51.8516 34.9241 50.4428 34.9159 49.579 34.0419C48.7151 33.1679 48.7234 31.7591 49.5973 30.8953L54.5998 25.9509Z" fill="#2A5F31"/>
</g>
<defs>
<clipPath id="clip0_489_166">
<rect width="63" height="60" fill="white"/>
</clipPath>
</defs>
</svg>
