<svg width="54" height="60" viewBox="0 0 54 60" fill="none" xmlns="http://www.w3.org/2000/svg">
<path d="M24.1667 1.77305e-09C23.3553 0.163734 22.5584 0.408136 21.7902 0.733205C8.51108 6.35244 0 22.0659 0 35.5318C0 48.3272 10.6114 58.8385 24.1667 60V1.77305e-09Z" fill="#2A5F31"/>
<path d="M29.1667 60C42.722 58.8385 53.3333 48.3272 53.3333 35.5318C53.3333 34.3065 53.2629 33.0627 53.1248 31.8095L29.1667 53.4996V60Z" fill="#2A5F31"/>
<path d="M47.5323 15.3819C46.2358 13.1945 44.7408 11.1223 43.0666 9.2287L29.1667 21.8128V32.0089L47.5323 15.3819Z" fill="#2A5F31"/>
<path d="M39.6948 5.87957C37.2439 3.75131 34.5128 1.98985 31.5431 0.733205C30.7749 0.408136 29.978 0.163734 29.1667 0V15.4111L39.6948 5.87957Z" fill="#2A5F31"/>
<path d="M49.7881 19.7413L29.1667 38.4106V47.0979L51.6667 26.7278L52.1064 26.3297C51.5267 24.1035 50.7487 21.8903 49.7881 19.7413Z" fill="#2A5F31"/>
</svg>
