<svg width="173" height="109" viewBox="0 0 173 109" fill="none" xmlns="http://www.w3.org/2000/svg">
<path fill-rule="evenodd" clip-rule="evenodd" d="M62.3303 0.829713C60.2836 0 57.6891 0 52.5 0C47.3109 0 44.7164 0 42.6697 0.829713C39.9409 1.936 37.7729 4.05794 36.6426 6.72875C36.1266 7.94796 35.9246 9.36583 35.8456 11.4341C35.7295 14.4735 34.1369 17.2868 31.4457 18.8076C28.7544 20.3283 25.4688 20.2715 22.7214 18.8502C20.8518 17.8831 19.4962 17.3453 18.1594 17.173C15.231 16.7957 12.2694 17.5724 9.92612 19.3322C8.16865 20.6521 6.87138 22.8513 4.27683 27.2496C1.68229 31.648 0.385013 33.8471 0.0958652 35.9967C-0.289664 38.8629 0.503895 41.7615 2.30197 44.055C3.12267 45.1018 4.27612 45.9818 6.06626 47.0827C8.69795 48.7011 10.3913 51.4581 10.3911 54.5001C10.3909 57.5418 8.69767 60.2984 6.06625 61.9166C4.2758 63.0177 3.12221 63.8977 2.30142 64.9447C0.50335 67.2381 -0.290209 70.1368 0.0953202 73.0029C0.384468 75.1525 1.68174 77.3517 4.27629 81.75C6.87083 86.1483 8.16811 88.3475 9.92558 89.6674C12.2689 91.4272 15.2305 92.2039 18.1589 91.8266C19.4956 91.6543 20.8511 91.1166 22.7205 90.1496C25.4681 88.7282 28.754 88.6714 31.4454 90.1923C34.1368 91.7131 35.7295 94.5266 35.8456 97.5662C35.9247 99.6343 36.1266 101.052 36.6426 102.271C37.7729 104.942 39.9409 107.064 42.6697 108.17C44.7164 109 47.3109 109 52.5 109C57.6891 109 60.2836 109 62.3303 108.17C65.0591 107.064 67.2271 104.942 68.3574 102.271C68.8734 101.052 69.0754 99.6341 69.1544 97.5658C69.2705 94.5264 70.8629 91.7131 73.554 90.1922C76.2454 88.6712 79.5314 88.7279 82.2791 90.1493C84.1485 91.1163 85.5039 91.654 86.8406 91.8262C89.769 92.2035 92.7306 91.4268 95.0739 89.667C96.8313 88.3471 98.1286 86.148 100.723 81.7496C103.318 77.3513 104.615 75.1521 104.904 73.0025C105.29 70.1364 104.496 67.2378 102.698 64.9443C101.877 63.8974 100.724 63.0174 98.9334 61.9164C96.3019 60.2981 94.6088 57.5413 94.6089 54.4995C94.6091 51.4581 96.3022 48.7017 98.9334 47.0836C100.724 45.9824 101.878 45.1023 102.699 44.0553C104.497 41.7619 105.29 38.8632 104.905 35.9971C104.616 33.8475 103.318 31.6483 100.724 27.25C98.1292 22.8517 96.8319 20.6525 95.0744 19.3326C92.7311 17.5728 89.7695 16.7961 86.8411 17.1734C85.5044 17.3457 84.1489 17.8834 82.2795 18.8504C79.5319 20.2718 76.246 20.3286 73.5546 18.8077C70.8632 17.2869 69.2705 14.4733 69.1544 11.4338C69.0753 9.3657 68.8734 7.9479 68.3574 6.72875C67.2271 4.05794 65.0591 1.936 62.3303 0.829713ZM52.5 70.85C61.726 70.85 69.2052 63.5299 69.2052 54.5C69.2052 45.4701 61.726 38.15 52.5 38.15C43.274 38.15 35.7948 45.4701 35.7948 54.5C35.7948 63.5299 43.274 70.85 52.5 70.85Z" fill="#F0DD6C"/>
<path fill-rule="evenodd" clip-rule="evenodd" d="M146.585 10.51C145.318 10 143.712 10 140.5 10C137.288 10 135.682 10 134.415 10.51C132.725 11.19 131.383 12.4943 130.683 14.136C130.364 14.8854 130.239 15.757 130.19 17.0283C130.118 18.8965 129.132 20.6258 127.466 21.5606C125.8 22.4954 123.766 22.4605 122.066 21.5868C120.908 20.9924 120.069 20.6618 119.242 20.5559C117.429 20.324 115.595 20.8014 114.145 21.8831C113.057 22.6944 112.254 24.0462 110.648 26.7498C109.041 29.4533 108.238 30.8051 108.059 32.1264C107.821 33.8882 108.312 35.6699 109.425 37.0797C109.933 37.7231 110.647 38.264 111.755 38.9407C113.384 39.9355 114.433 41.6302 114.433 43.5001C114.432 45.3697 113.384 47.0642 111.755 48.0588C110.647 48.7356 109.933 49.2766 109.425 49.9201C108.312 51.3299 107.82 53.1116 108.059 54.8733C108.238 56.1947 109.041 57.5464 110.647 60.25C112.253 62.9536 113.056 64.3053 114.144 65.1166C115.595 66.1984 117.428 66.6758 119.241 66.4439C120.069 66.338 120.908 66.0075 122.065 65.413C123.766 64.5394 125.8 64.5044 127.466 65.4393C129.132 66.3741 130.118 68.1035 130.19 69.9719C130.239 71.2431 130.364 72.1146 130.683 72.864C131.383 74.5057 132.725 75.81 134.415 76.49C135.682 77 137.288 77 140.5 77C143.712 77 145.318 77 146.585 76.49C148.275 75.81 149.617 74.5057 150.317 72.864C150.636 72.1145 150.761 71.243 150.81 69.9716C150.882 68.1034 151.868 66.3741 153.533 65.4393C155.2 64.5043 157.234 64.5392 158.935 65.4129C160.092 66.0072 160.931 66.3378 161.758 66.4436C163.571 66.6756 165.405 66.1982 166.855 65.1164C167.943 64.3051 168.746 62.9533 170.352 60.2498C171.959 57.5462 172.762 56.1944 172.941 54.8731C173.179 53.1114 172.688 51.3296 171.575 49.9199C171.067 49.2764 170.353 48.7354 169.244 48.0587C167.615 47.064 166.567 45.3694 166.567 43.4997C166.568 41.6302 167.616 39.9359 169.245 38.9413C170.353 38.2644 171.067 37.7234 171.575 37.0799C172.688 35.6701 173.18 33.8884 172.941 32.1267C172.762 30.8053 171.959 29.4536 170.353 26.75C168.747 24.0464 167.944 22.6947 166.856 21.8833C165.405 20.8016 163.572 20.3242 161.759 20.5561C160.931 20.662 160.092 20.9925 158.935 21.587C157.234 22.4606 155.2 22.4956 153.534 21.5607C151.868 20.6259 150.882 18.8965 150.81 17.0281C150.761 15.7569 150.636 14.8854 150.317 14.136C149.617 12.4943 148.275 11.19 146.585 10.51ZM140.5 53.55C146.211 53.55 150.841 49.0505 150.841 43.5C150.841 37.9495 146.211 33.45 140.5 33.45C134.789 33.45 130.159 37.9495 130.159 43.5C130.159 49.0505 134.789 53.55 140.5 53.55Z" fill="#F0DD6C"/>
</svg>
