<svg width="108" height="108" viewBox="0 0 108 108" fill="none" xmlns="http://www.w3.org/2000/svg">
<path d="M72.6485 77.9615C73.6031 77.2294 74.4688 76.3781 76.2003 74.6755L97.778 53.4574C98.2996 52.9445 98.0643 52.0507 97.3719 51.8145C94.8239 50.9452 91.5095 49.3133 88.409 46.2645C85.3086 43.2157 83.6489 39.9565 82.7649 37.451C82.5214 36.7606 81.6325 36.5223 81.1105 37.0356L59.5165 58.2697L59.5164 58.2698C57.785 59.9724 56.9192 60.8237 56.1747 61.7623C55.2964 62.8696 54.5434 64.0677 53.929 65.3353C53.4082 66.41 53.021 67.5521 52.2467 69.8364L51.2461 72.7881L49.6551 77.4815L48.1633 81.8823C47.7823 83.0064 48.0798 84.2458 48.9319 85.0836C49.784 85.9215 51.0443 86.2141 52.1875 85.8394L56.6629 84.3725L61.4359 82.808L64.4375 81.8241L64.4376 81.8241C66.7606 81.0626 67.9221 80.6819 69.0149 80.1698C70.3041 79.5657 71.5225 78.8252 72.6485 77.9615Z" fill="#F0DD6C"/>
<path d="M104.545 46.8035C109.152 42.2732 109.152 34.9281 104.545 30.3977C99.9375 25.8674 92.4679 25.8674 87.8608 30.3977L86.8045 31.4365C86.4685 31.7668 86.3006 31.932 86.2255 32.168C86.1503 32.4041 86.1912 32.6316 86.2728 33.0865L86.2728 33.0865C86.3097 33.2923 86.3431 33.4767 86.3611 33.575C86.4663 34.1517 86.6614 34.9947 87.0163 36.0006C87.7261 38.0123 89.0665 40.6531 91.591 43.1355C94.1155 45.618 96.8011 46.936 98.8469 47.6339C99.8698 47.9829 100.727 48.1748 101.314 48.2783C101.42 48.297 101.625 48.3331 101.851 48.3721C102.295 48.4491 102.517 48.4876 102.748 48.4155C102.979 48.3435 103.142 48.1824 103.47 47.8601L104.545 46.8035Z" fill="#F0DD6C"/>
<path fill-rule="evenodd" clip-rule="evenodd" d="M6.31348 6.32649C0 12.653 0 22.8353 0 43.2V64.8C0 85.1647 0 95.347 6.31348 101.674C12.627 108 22.7883 108 43.1111 108H53.8889C74.2117 108 84.373 108 90.6865 101.674C96.8987 95.4485 96.9984 85.4904 97 65.7724L81.8125 80.9913C80.3587 82.4491 79.1681 83.643 77.8234 84.694C76.248 85.9253 74.5434 86.981 72.7398 87.8423C71.2004 88.5775 69.6022 89.1107 67.651 89.7617L55.1935 93.9226C51.1595 95.2701 46.7119 94.218 43.7051 91.205C40.6983 88.192 39.6484 83.7353 40.9931 79.6929L42.4669 75.2623L45.0273 67.5654L45.1454 67.2101C45.7951 65.2546 46.3272 63.6531 47.0609 62.1104C47.9204 60.3031 48.9739 58.595 50.2027 57.0163C51.2516 55.6688 52.4431 54.4757 53.898 53.0189L75.4883 31.3842L81.4799 25.3802L82.1655 24.6932C86.0207 20.83 91.0739 18.899 96.1268 18.9C95.3115 13.335 93.735 9.38127 90.6865 6.32649C84.373 0 74.2117 0 53.8889 0H43.1111C22.7883 0 12.627 0 6.31348 6.32649ZM22.9028 37.8C22.9028 35.5632 24.7123 33.75 26.9444 33.75H61.9722C64.2044 33.75 66.0139 35.5632 66.0139 37.8C66.0139 40.0368 64.2044 41.85 61.9722 41.85H26.9444C24.7123 41.85 22.9028 40.0368 22.9028 37.8ZM22.9028 59.4C22.9028 57.1632 24.7123 55.35 26.9444 55.35H40.4167C42.6488 55.35 44.4583 57.1632 44.4583 59.4C44.4583 61.6368 42.6488 63.45 40.4167 63.45H26.9444C24.7123 63.45 22.9028 61.6368 22.9028 59.4ZM22.9028 81C22.9028 78.7633 24.7123 76.95 26.9444 76.95H35.0278C37.2599 76.95 39.0694 78.7633 39.0694 81C39.0694 83.2368 37.2599 85.05 35.0278 85.05H26.9444C24.7123 85.05 22.9028 83.2368 22.9028 81Z" fill="#F0DD6C"/>
</svg>
